<svg width="20" height="18" viewBox="0 0 20 18" fill="none" xmlns="http://www.w3.org/2000/svg">
<path d="M19.9335 6.2833C19.9335 6.25005 19.9667 6.21657 19.9667 6.18332C19.9667 6.15007 20 6.11658 20 6.08333V5.98335V5.88336C20 5.85011 20 5.81663 19.9667 5.81663C19.9667 5.78338 19.9667 5.7499 19.9335 5.71665C19.9335 5.6834 19.9002 5.68339 19.9002 5.64991C19.9002 5.61666 19.867 5.58318 19.867 5.58318L16.0002 0.783012C15.867 0.616294 15.6667 0.549561 15.4668 0.549561L4.53321 0.549792C4.33324 0.549792 4.13327 0.649777 3.99981 0.783244L0.133001 5.58317C0.0997504 5.61642 0.0997511 5.64991 0.0997511 5.64991C0.0997511 5.68316 0.0665007 5.68316 0.0665007 5.71664C0.0665007 5.74989 0.0332504 5.78337 0.0332504 5.81662C0.0332504 5.84987 0 5.88336 0 5.88336V5.98334V6.08333C0 6.11658 0.0332504 6.15006 0.0332504 6.18331C0.0332504 6.21656 0.0332506 6.25004 0.0665007 6.2833C0.0665007 6.31655 0.0997505 6.35003 0.133234 6.38328C0.133234 6.41653 0.166484 6.41653 0.166484 6.45001L9.50002 17.2169C9.63326 17.3502 9.79998 17.4504 9.99994 17.4504C10.1999 17.4504 10.3666 17.3504 10.4999 17.2169L19.8334 6.45001C19.8666 6.41676 19.8666 6.41676 19.8666 6.38328C19.9001 6.35003 19.9334 6.31655 19.9334 6.2833L19.9335 6.2833ZM17.9336 5.31649H13.8333L15.5333 2.31655L17.9336 5.31649ZM10.0001 2.54994L11.5668 5.31667H8.4333L10.0001 2.54994ZM7.30006 4.64981L5.73336 1.88308H8.86682L7.30006 4.64981ZM11.1334 1.84981H14.2668L12.7001 4.64981L11.1334 1.84981ZM11.8335 6.64998L10.0001 13.9501L8.16663 6.64998H11.8335ZM4.46667 2.31649L6.16664 5.31643H2.06661L4.46667 2.31649ZM6.79999 6.64998L8.70015 14.2501L2.13334 6.64998H6.79999ZM11.3002 14.2501L13.2004 6.64998H17.867L11.3002 14.2501Z" fill="#4BFB9C"/>
</svg>
