<svg width="20" height="20" viewBox="0 0 20 20" fill="none" xmlns="http://www.w3.org/2000/svg">
<mask id="path-1-inside-1_137_4843" fill="white">
<path d="M0 13.2257C0 13.568 0.136134 13.896 0.378022 14.1382C0.619911 14.38 0.948205 14.516 1.29046 14.516H4.55156C4.79841 14.5144 5.03556 14.6111 5.21043 14.7848C5.38549 14.9588 5.48405 15.1953 5.48405 15.4419V18.7095C5.48405 19.0518 5.61996 19.3801 5.86185 19.622C6.10396 19.8639 6.43203 20 6.77428 20C7.11654 20 7.44461 19.8639 7.68672 19.622C7.92861 19.3801 8.06452 19.0518 8.06452 18.7095V15.4385C8.06294 14.5083 7.69189 13.6168 7.0333 12.96C6.37443 12.303 5.48204 11.9346 4.55163 11.9355H1.29053C0.948285 11.9355 0.619969 12.0715 0.378092 12.3133C0.136204 12.5555 6.94377e-05 12.8835 6.94377e-05 13.2258L0 13.2257Z"/>
</mask>
<path d="M0 13.2257C0 13.568 0.136134 13.896 0.378022 14.1382C0.619911 14.38 0.948205 14.516 1.29046 14.516H4.55156C4.79841 14.5144 5.03556 14.6111 5.21043 14.7848C5.38549 14.9588 5.48405 15.1953 5.48405 15.4419V18.7095C5.48405 19.0518 5.61996 19.3801 5.86185 19.622C6.10396 19.8639 6.43203 20 6.77428 20C7.11654 20 7.44461 19.8639 7.68672 19.622C7.92861 19.3801 8.06452 19.0518 8.06452 18.7095V15.4385C8.06294 14.5083 7.69189 13.6168 7.0333 12.96C6.37443 12.303 5.48204 11.9346 4.55163 11.9355H1.29053C0.948285 11.9355 0.619969 12.0715 0.378092 12.3133C0.136204 12.5555 6.94377e-05 12.8835 6.94377e-05 13.2258L0 13.2257Z" fill="#FBCA4B" stroke="#1D2116" stroke-width="0.5" mask="url(#path-1-inside-1_137_4843)"/>
<mask id="path-2-inside-2_137_4843" fill="white">
<path d="M15.4485 8.06445H18.7096C19.1707 8.06445 19.5966 7.81851 19.827 7.41935C20.0576 7.02018 20.0576 6.52828 19.827 6.12915C19.5966 5.72997 19.1706 5.48405 18.7096 5.48405H15.4485C15.2017 5.48562 14.9645 5.38887 14.7896 5.21516C14.6146 5.04122 14.516 4.80473 14.516 4.55813V1.29046C14.516 0.948216 14.3801 0.619899 14.1382 0.378022C13.8961 0.136134 13.568 0 13.2258 0C12.8835 0 12.5555 0.136134 12.3133 0.378022C12.0715 0.619911 11.9355 0.948204 11.9355 1.29046V4.56147C11.9371 5.49165 12.3082 6.38318 12.9668 7.03997C13.6256 7.697 14.518 8.06537 15.4484 8.06445H15.4485Z"/>
</mask>
<path d="M15.4485 8.06445H18.7096C19.1707 8.06445 19.5966 7.81851 19.827 7.41935C20.0576 7.02018 20.0576 6.52828 19.827 6.12915C19.5966 5.72997 19.1706 5.48405 18.7096 5.48405H15.4485C15.2017 5.48562 14.9645 5.38887 14.7896 5.21516C14.6146 5.04122 14.516 4.80473 14.516 4.55813V1.29046C14.516 0.948216 14.3801 0.619899 14.1382 0.378022C13.8961 0.136134 13.568 0 13.2258 0C12.8835 0 12.5555 0.136134 12.3133 0.378022C12.0715 0.619911 11.9355 0.948204 11.9355 1.29046V4.56147C11.9371 5.49165 12.3082 6.38318 12.9668 7.03997C13.6256 7.697 14.518 8.06537 15.4484 8.06445H15.4485Z" fill="#FBCA4B" stroke="#1D2116" stroke-width="0.5" mask="url(#path-2-inside-2_137_4843)"/>
<mask id="path-3-inside-3_137_4843" fill="white">
<path d="M2.95806 2.95789C2.71572 3.19978 2.57959 3.5283 2.57959 3.87079C2.57959 4.21326 2.71572 4.54158 2.95806 4.78369L15.2161 17.0417L15.2158 17.0415C15.5421 17.3677 16.0173 17.4951 16.4628 17.3756C16.9084 17.2564 17.2564 16.9083 17.3757 16.4627C17.4952 16.0172 17.3679 15.542 17.0416 15.2157L4.78359 2.95771L4.78381 2.95794C4.5417 2.7156 4.21341 2.57947 3.87091 2.57947C3.52844 2.57947 3.19995 2.7156 2.95802 2.95794L2.95806 2.95789Z"/>
</mask>
<path d="M2.95806 2.95789C2.71572 3.19978 2.57959 3.5283 2.57959 3.87079C2.57959 4.21326 2.71572 4.54158 2.95806 4.78369L15.2161 17.0417L15.2158 17.0415C15.5421 17.3677 16.0173 17.4951 16.4628 17.3756C16.9084 17.2564 17.2564 16.9083 17.3757 16.4627C17.4952 16.0172 17.3679 15.542 17.0416 15.2157L4.78359 2.95771L4.78381 2.95794C4.5417 2.7156 4.21341 2.57947 3.87091 2.57947C3.52844 2.57947 3.19995 2.7156 2.95802 2.95794L2.95806 2.95789Z" fill="#FBCA4B" stroke="#1D2116" stroke-width="0.5" mask="url(#path-3-inside-3_137_4843)"/>
</svg>
