<svg width="20" height="20" viewBox="0 0 20 20" fill="none" xmlns="http://www.w3.org/2000/svg">
<path d="M0.125069 13.2384C0.128393 13.5429 0.250924 13.8341 0.466451 14.0498C0.684874 14.2682 0.981348 14.391 1.29046 14.391H4.55115H4.55156V14.516L0.125069 13.2384ZM0.125069 13.2384V13.2258C0.125069 12.9168 0.247977 12.6205 0.466482 12.4017L0.125069 13.2384ZM4.55176 12.0605L4.55163 12.0605L1.29053 12.0605C0.981426 12.0605 0.68493 12.1833 0.466521 12.4017L4.55176 12.0605ZM4.55176 12.0605C5.44903 12.0597 6.30963 12.4149 6.94503 13.0485C7.58012 13.6819 7.93794 14.5416 7.93952 15.4385M4.55176 12.0605L7.93952 15.4385M7.59837 19.5335C7.59836 19.5336 7.59835 19.5336 7.59833 19.5336C7.37961 19.7521 7.08331 19.875 6.77428 19.875C6.46526 19.875 6.16896 19.7521 5.95023 19.5336L7.59837 19.5335ZM7.59837 19.5335C7.81677 19.3151 7.93952 19.0187 7.93952 18.7095L7.93952 15.4387M7.59837 19.5335L7.93952 15.4387M7.93952 15.4387L7.93952 15.4385M7.93952 15.4387L7.93952 15.4385" fill="#FBCA4B" stroke="#1D2116" stroke-width="0.25"/>
<path d="M19.7187 7.35686L19.7188 7.35681C19.927 6.99633 19.927 6.55213 19.7188 6.19169L19.7187 6.19164C19.5107 5.83116 19.126 5.60905 18.7096 5.60905H15.4488H15.4485V5.48405C15.2017 5.48562 14.9645 5.38887 14.7896 5.21516L19.7187 7.35686ZM19.7187 7.35686C19.5107 7.71734 19.126 7.93945 18.7096 7.93945H15.4485H15.4484H15.4483M19.7187 7.35686L15.4483 7.93945M15.4483 7.93945C14.551 7.94034 13.6904 7.58509 13.055 6.95146C12.4199 6.31808 12.0621 5.45835 12.0605 4.56136V1.29046C12.0605 0.981348 12.1833 0.684874 12.4017 0.466451L15.4483 7.93945Z" fill="#FBCA4B" stroke="#1D2116" stroke-width="0.25"/>
<path d="M3.04645 3.04628L3.02496 3.02477L3.04648 3.04625C3.26495 2.82742 3.56161 2.70447 3.87091 2.70447C4.18013 2.70447 4.47654 2.82733 4.6952 3.0461C4.69526 3.04616 4.69532 3.04623 4.69538 3.04629L4.69542 3.04633L16.9532 15.3041C17.2479 15.5988 17.3629 16.028 17.255 16.4303L17.255 16.4304C17.1473 16.8328 16.8329 17.1472 16.4305 17.2549L16.4305 17.2549C16.0281 17.3628 15.5989 17.2478 15.3042 16.9531L3.04645 4.6953L3.04641 4.69526C2.82753 4.47659 2.70459 4.18007 2.70459 3.87079C2.70459 3.56146 2.82755 3.26478 3.04637 3.04636L3.01938 3.01932L3.0464 3.04633L3.04645 3.04628Z" fill="#FBCA4B" stroke="#1D2116" stroke-width="0.25"/>
</svg>
