<svg width="20" height="20" viewBox="0 0 20 20" fill="none" xmlns="http://www.w3.org/2000/svg">
<path fill-rule="evenodd" clip-rule="evenodd" d="M6.3371 1.58453C6.3371 5.55493 9.18882 8.80324 12.6738 8.80324C9.18893 8.80324 6.3371 12.0517 6.3371 16.0219C6.3371 12.0515 3.48539 8.80324 0 8.80324C3.48489 8.80324 6.3371 5.5548 6.3371 1.58453ZM15.796 0C15.796 2.63398 17.6877 4.78881 20 4.78881C17.6877 4.78881 15.796 6.94365 15.796 9.57763C15.796 6.94365 13.9044 4.78881 11.5921 4.78881C13.9044 4.78881 15.796 2.63398 15.796 0ZM14.0032 11.831C14.0032 14.0777 15.6171 15.9155 17.5889 15.9155C15.6165 15.9155 14.0032 17.754 14.0032 20C14.0032 17.7533 12.3892 15.9155 10.4175 15.9155C12.3899 15.9155 14.0032 14.077 14.0032 11.831Z" fill="#9951D2"/>
</svg>
