<svg width="752" height="87" viewBox="0 0 752 87" fill="none" xmlns="http://www.w3.org/2000/svg">
<path d="M43.52 35.16H60.8V26.52H43.52V35.16ZM69.44 0.599997C72.88 0.599997 75.72 0.879995 77.96 1.43999C80.2 1.92 81.96 2.8 83.24 4.07999C84.52 5.36 85.4 7.12 85.88 9.36C86.44 11.6 86.72 14.44 86.72 17.88V43.8C86.72 47.24 86.44 50.08 85.88 52.32C85.4 54.56 84.52 56.32 83.24 57.6C81.96 58.88 80.2 59.8 77.96 60.36C75.72 60.84 72.88 61.08 69.44 61.08H43.64V78.36C43.64 80.12 43.52 81.56 43.28 82.68C43.04 83.8 42.6 84.68 41.96 85.32C41.32 85.96 40.44 86.4 39.32 86.64C38.2 86.88 36.76 87 35 87H8.96C7.2 87 5.76 86.88 4.64 86.64C3.52 86.4 2.64 85.96 2 85.32C1.36 84.68 0.92 83.8 0.68 82.68C0.44 81.56 0.32 80.12 0.32 78.36V9.24C0.32 7.48 0.44 6.04 0.68 4.92C0.92 3.8 1.36 2.92 2 2.28C2.64 1.64 3.52 1.2 4.64 0.959999C5.76 0.719997 7.2 0.599997 8.96 0.599997H69.44ZM164.479 0.599997C167.919 0.599997 170.759 0.879995 172.999 1.43999C175.239 1.92 176.999 2.8 178.279 4.07999C179.559 5.36 180.439 7.12 180.919 9.36C181.479 11.6 181.759 14.44 181.759 17.88V35.16C181.759 38.6 181.479 41.44 180.919 43.68C180.439 45.92 179.559 47.68 178.279 48.96C176.999 50.24 175.239 51.16 172.999 51.72C170.759 52.2 167.919 52.44 164.479 52.44H155.839V61.08H173.119C176.559 61.08 178.839 61.68 179.959 62.88C181.159 64 181.759 66.28 181.759 69.72V78.36C181.759 80.12 181.639 81.56 181.399 82.68C181.159 83.8 180.719 84.68 180.079 85.32C179.439 85.96 178.559 86.4 177.439 86.64C176.319 86.88 174.879 87 173.119 87H151.519C149.759 87 148.319 86.88 147.199 86.64C146.079 86.4 145.199 85.96 144.559 85.32C143.919 84.68 143.479 83.8 143.239 82.68C142.999 81.56 142.879 80.12 142.879 78.36V52.44H134.239V78.36C134.239 80.12 134.119 81.56 133.879 82.68C133.639 83.8 133.199 84.68 132.559 85.32C131.919 85.96 131.039 86.4 129.919 86.64C128.799 86.88 127.359 87 125.599 87H103.999C102.239 87 100.799 86.88 99.6791 86.64C98.5591 86.4 97.6791 85.96 97.0391 85.32C96.3991 84.68 95.9591 83.8 95.7191 82.68C95.4791 81.56 95.3591 80.12 95.3591 78.36V9.24C95.3591 7.48 95.4791 6.04 95.7191 4.92C95.9591 3.8 96.3991 2.92 97.0391 2.28C97.6791 1.64 98.5591 1.2 99.6791 0.959999C100.799 0.719997 102.239 0.599997 103.999 0.599997H164.479ZM134.239 35.16H155.839V26.52H134.239V35.16ZM268.158 0.599997C271.598 0.599997 273.878 1.2 274.998 2.39999C276.198 3.51999 276.798 5.8 276.798 9.24V78.36C276.798 80.12 276.678 81.56 276.438 82.68C276.198 83.8 275.758 84.68 275.118 85.32C274.478 85.96 273.598 86.4 272.478 86.64C271.358 86.88 269.918 87 268.158 87H199.038C197.278 87 195.838 86.88 194.718 86.64C193.598 86.4 192.718 85.96 192.078 85.32C191.438 84.68 190.998 83.8 190.758 82.68C190.518 81.56 190.398 80.12 190.398 78.36V9.24C190.398 7.48 190.518 6.04 190.758 4.92C190.998 3.8 191.438 2.92 192.078 2.28C192.718 1.64 193.598 1.2 194.718 0.959999C195.838 0.719997 197.278 0.599997 199.038 0.599997H268.158ZM229.278 61.08H237.918V26.52H229.278V61.08ZM328.637 0.599997C332.077 0.599997 334.357 1.2 335.477 2.39999C336.677 3.51999 337.277 5.8 337.277 9.24V61.08H345.917V9.24C345.917 7.48 346.037 6.04 346.277 4.92C346.517 3.8 346.957 2.92 347.597 2.28C348.237 1.64 349.117 1.2 350.237 0.959999C351.357 0.719997 352.797 0.599997 354.557 0.599997H363.197C366.637 0.599997 368.917 1.2 370.037 2.39999C371.237 3.51999 371.837 5.8 371.837 9.24V78.36C371.837 80.12 371.717 81.56 371.477 82.68C371.237 83.8 370.797 84.68 370.157 85.32C369.517 85.96 368.637 86.4 367.517 86.64C366.397 86.88 364.957 87 363.197 87H337.277C335.517 87 334.077 86.88 332.957 86.64C331.837 86.4 330.957 85.96 330.317 85.32C329.677 84.68 329.237 83.8 328.997 82.68C328.757 81.56 328.637 80.12 328.637 78.36V26.52H319.997V78.36C319.997 80.12 319.877 81.56 319.637 82.68C319.397 83.8 318.957 84.68 318.317 85.32C317.677 85.96 316.797 86.4 315.677 86.64C314.557 86.88 313.117 87 311.357 87H294.077C292.317 87 290.877 86.88 289.757 86.64C288.637 86.4 287.757 85.96 287.117 85.32C286.477 84.68 286.037 83.8 285.797 82.68C285.557 81.56 285.437 80.12 285.437 78.36V9.24C285.437 7.48 285.557 6.04 285.797 4.92C286.037 3.8 286.477 2.92 287.117 2.28C287.757 1.64 288.637 1.2 289.757 0.959999C290.877 0.719997 292.317 0.599997 294.077 0.599997H328.637ZM458.236 0.599997C461.676 0.599997 463.956 1.2 465.076 2.39999C466.276 3.51999 466.876 5.8 466.876 9.24V78.36C466.876 80.12 466.756 81.56 466.516 82.68C466.276 83.8 465.836 84.68 465.196 85.32C464.556 85.96 463.676 86.4 462.556 86.64C461.436 86.88 459.996 87 458.236 87H389.116C387.356 87 385.916 86.88 384.796 86.64C383.676 86.4 382.796 85.96 382.156 85.32C381.516 84.68 381.076 83.8 380.836 82.68C380.596 81.56 380.476 80.12 380.476 78.36V9.24C380.476 7.48 380.596 6.04 380.836 4.92C381.076 3.8 381.516 2.92 382.156 2.28C382.796 1.64 383.676 1.2 384.796 0.959999C385.916 0.719997 387.356 0.599997 389.116 0.599997H458.236ZM419.356 61.08H427.996V26.52H419.356V61.08ZM505.755 0.599997C509.195 0.599997 511.475 1.2 512.595 2.39999C513.795 3.51999 514.395 5.8 514.395 9.24V61.08H523.035V9.24C523.035 7.48 523.155 6.04 523.395 4.92C523.635 3.8 524.075 2.92 524.715 2.28C525.355 1.64 526.235 1.2 527.355 0.959999C528.475 0.719997 529.915 0.599997 531.675 0.599997H553.275C556.715 0.599997 558.995 1.2 560.115 2.39999C561.315 3.51999 561.915 5.8 561.915 9.24V78.36C561.915 80.12 561.795 81.56 561.555 82.68C561.315 83.8 560.875 84.68 560.235 85.32C559.595 85.96 558.715 86.4 557.595 86.64C556.475 86.88 555.035 87 553.275 87H484.155C482.395 87 480.955 86.88 479.835 86.64C478.715 86.4 477.835 85.96 477.195 85.32C476.555 84.68 476.115 83.8 475.875 82.68C475.635 81.56 475.515 80.12 475.515 78.36V9.24C475.515 7.48 475.635 6.04 475.875 4.92C476.115 3.8 476.555 2.92 477.195 2.28C477.835 1.64 478.715 1.2 479.835 0.959999C480.955 0.719997 482.395 0.599997 484.155 0.599997H505.755ZM613.754 0.599997C617.194 0.599997 619.474 1.2 620.594 2.39999C621.794 3.51999 622.394 5.8 622.394 9.24V61.08H631.034V9.24C631.034 7.48 631.154 6.04 631.394 4.92C631.634 3.8 632.074 2.92 632.714 2.28C633.354 1.64 634.234 1.2 635.354 0.959999C636.474 0.719997 637.914 0.599997 639.674 0.599997H648.314C651.754 0.599997 654.034 1.2 655.154 2.39999C656.354 3.51999 656.954 5.8 656.954 9.24V78.36C656.954 80.12 656.834 81.56 656.594 82.68C656.354 83.8 655.914 84.68 655.274 85.32C654.634 85.96 653.754 86.4 652.634 86.64C651.514 86.88 650.074 87 648.314 87H622.394C620.634 87 619.194 86.88 618.074 86.64C616.954 86.4 616.074 85.96 615.434 85.32C614.794 84.68 614.354 83.8 614.114 82.68C613.874 81.56 613.754 80.12 613.754 78.36V26.52H605.114V78.36C605.114 80.12 604.994 81.56 604.754 82.68C604.514 83.8 604.074 84.68 603.434 85.32C602.794 85.96 601.914 86.4 600.794 86.64C599.674 86.88 598.234 87 596.474 87H579.194C577.434 87 575.994 86.88 574.874 86.64C573.754 86.4 572.874 85.96 572.234 85.32C571.594 84.68 571.154 83.8 570.914 82.68C570.674 81.56 570.554 80.12 570.554 78.36V9.24C570.554 7.48 570.674 6.04 570.914 4.92C571.154 3.8 571.594 2.92 572.234 2.28C572.874 1.64 573.754 1.2 574.874 0.959999C575.994 0.719997 577.434 0.599997 579.194 0.599997H613.754ZM743.353 0.599997C746.793 0.599997 749.073 1.2 750.193 2.39999C751.393 3.51999 751.993 5.8 751.993 9.24V17.88C751.993 19.64 751.873 21.08 751.633 22.2C751.393 23.32 750.953 24.2 750.313 24.84C749.673 25.48 748.793 25.92 747.673 26.16C746.553 26.4 745.113 26.52 743.353 26.52H708.793V35.16H743.353C746.793 35.16 749.073 35.76 750.193 36.96C751.393 38.08 751.993 40.36 751.993 43.8V78.36C751.993 80.12 751.873 81.56 751.633 82.68C751.393 83.8 750.953 84.68 750.313 85.32C749.673 85.96 748.793 86.4 747.673 86.64C746.553 86.88 745.113 87 743.353 87H674.233C672.473 87 671.033 86.88 669.913 86.64C668.793 86.4 667.913 85.96 667.273 85.32C666.633 84.68 666.193 83.8 665.953 82.68C665.713 81.56 665.593 80.12 665.593 78.36V69.72C665.593 67.96 665.713 66.52 665.953 65.4C666.193 64.28 666.633 63.4 667.273 62.76C667.913 62.12 668.793 61.68 669.913 61.44C671.033 61.2 672.473 61.08 674.233 61.08H708.793V52.44H674.233C672.473 52.44 671.033 52.32 669.913 52.08C668.793 51.84 667.913 51.4 667.273 50.76C666.633 50.12 666.193 49.24 665.953 48.12C665.713 47 665.593 45.56 665.593 43.8V9.24C665.593 7.48 665.713 6.04 665.953 4.92C666.193 3.8 666.633 2.92 667.273 2.28C667.913 1.64 668.793 1.2 669.913 0.959999C671.033 0.719997 672.473 0.599997 674.233 0.599997H743.353Z" fill="#4BFB9C"/>
</svg>
