<svg width="152" height="18" viewBox="0 0 152 18" fill="none" xmlns="http://www.w3.org/2000/svg">
<path d="M9.504 7.632H12.96V5.904H9.504V7.632ZM14.688 0.719999C15.376 0.719999 15.944 0.775999 16.392 0.887999C16.84 0.983999 17.192 1.16 17.448 1.416C17.704 1.672 17.88 2.024 17.976 2.472C18.088 2.92 18.144 3.488 18.144 4.176V9.36C18.144 10.048 18.088 10.616 17.976 11.064C17.88 11.512 17.704 11.864 17.448 12.12C17.192 12.376 16.84 12.56 16.392 12.672C15.944 12.768 15.376 12.816 14.688 12.816H9.528V16.272C9.528 16.624 9.504 16.912 9.456 17.136C9.408 17.36 9.32 17.536 9.192 17.664C9.064 17.792 8.888 17.88 8.664 17.928C8.44 17.976 8.152 18 7.8 18H2.592C2.24 18 1.952 17.976 1.728 17.928C1.504 17.88 1.328 17.792 1.2 17.664C1.072 17.536 0.984 17.36 0.936 17.136C0.888 16.912 0.864 16.624 0.864 16.272V2.448C0.864 2.096 0.888 1.808 0.936 1.584C0.984 1.36 1.072 1.184 1.2 1.056C1.328 0.927999 1.504 0.839999 1.728 0.792C1.952 0.743999 2.24 0.719999 2.592 0.719999H14.688ZM33.6958 0.719999C34.3838 0.719999 34.9518 0.775999 35.3998 0.887999C35.8478 0.983999 36.1998 1.16 36.4558 1.416C36.7118 1.672 36.8878 2.024 36.9838 2.472C37.0958 2.92 37.1518 3.488 37.1518 4.176V7.632C37.1518 8.32 37.0958 8.888 36.9838 9.336C36.8878 9.784 36.7118 10.136 36.4558 10.392C36.1998 10.648 35.8478 10.832 35.3998 10.944C34.9518 11.04 34.3838 11.088 33.6958 11.088H31.9678V12.816H35.4238C36.1118 12.816 36.5678 12.936 36.7918 13.176C37.0318 13.4 37.1518 13.856 37.1518 14.544V16.272C37.1518 16.624 37.1278 16.912 37.0798 17.136C37.0318 17.36 36.9438 17.536 36.8158 17.664C36.6878 17.792 36.5118 17.88 36.2878 17.928C36.0638 17.976 35.7758 18 35.4238 18H31.1038C30.7518 18 30.4638 17.976 30.2398 17.928C30.0158 17.88 29.8398 17.792 29.7118 17.664C29.5838 17.536 29.4958 17.36 29.4478 17.136C29.3998 16.912 29.3758 16.624 29.3758 16.272V11.088H27.6478V16.272C27.6478 16.624 27.6238 16.912 27.5758 17.136C27.5278 17.36 27.4398 17.536 27.3118 17.664C27.1838 17.792 27.0078 17.88 26.7838 17.928C26.5598 17.976 26.2718 18 25.9198 18H21.5998C21.2478 18 20.9598 17.976 20.7358 17.928C20.5118 17.88 20.3358 17.792 20.2078 17.664C20.0798 17.536 19.9918 17.36 19.9438 17.136C19.8958 16.912 19.8718 16.624 19.8718 16.272V2.448C19.8718 2.096 19.8958 1.808 19.9438 1.584C19.9918 1.36 20.0798 1.184 20.2078 1.056C20.3358 0.927999 20.5118 0.839999 20.7358 0.792C20.9598 0.743999 21.2478 0.719999 21.5998 0.719999H33.6958ZM27.6478 7.632H31.9678V5.904H27.6478V7.632ZM54.4316 0.719999C55.1196 0.719999 55.5756 0.839999 55.7996 1.08C56.0396 1.304 56.1596 1.76 56.1596 2.448V16.272C56.1596 16.624 56.1356 16.912 56.0876 17.136C56.0396 17.36 55.9516 17.536 55.8236 17.664C55.6956 17.792 55.5196 17.88 55.2956 17.928C55.0716 17.976 54.7836 18 54.4316 18H40.6076C40.2556 18 39.9676 17.976 39.7436 17.928C39.5196 17.88 39.3436 17.792 39.2156 17.664C39.0876 17.536 38.9996 17.36 38.9516 17.136C38.9036 16.912 38.8796 16.624 38.8796 16.272V2.448C38.8796 2.096 38.9036 1.808 38.9516 1.584C38.9996 1.36 39.0876 1.184 39.2156 1.056C39.3436 0.927999 39.5196 0.839999 39.7436 0.792C39.9676 0.743999 40.2556 0.719999 40.6076 0.719999H54.4316ZM46.6556 12.816H48.3836V5.904H46.6556V12.816ZM66.5274 0.719999C67.2154 0.719999 67.6714 0.839999 67.8954 1.08C68.1354 1.304 68.2554 1.76 68.2554 2.448V12.816H69.9834V2.448C69.9834 2.096 70.0074 1.808 70.0554 1.584C70.1034 1.36 70.1914 1.184 70.3194 1.056C70.4474 0.927999 70.6234 0.839999 70.8474 0.792C71.0714 0.743999 71.3594 0.719999 71.7114 0.719999H73.4394C74.1274 0.719999 74.5834 0.839999 74.8074 1.08C75.0474 1.304 75.1674 1.76 75.1674 2.448V16.272C75.1674 16.624 75.1434 16.912 75.0954 17.136C75.0474 17.36 74.9594 17.536 74.8314 17.664C74.7034 17.792 74.5274 17.88 74.3034 17.928C74.0794 17.976 73.7914 18 73.4394 18H68.2554C67.9034 18 67.6154 17.976 67.3914 17.928C67.1674 17.88 66.9914 17.792 66.8634 17.664C66.7354 17.536 66.6474 17.36 66.5994 17.136C66.5514 16.912 66.5274 16.624 66.5274 16.272V5.904H64.7994V16.272C64.7994 16.624 64.7754 16.912 64.7274 17.136C64.6794 17.36 64.5914 17.536 64.4634 17.664C64.3354 17.792 64.1594 17.88 63.9354 17.928C63.7114 17.976 63.4234 18 63.0714 18H59.6154C59.2634 18 58.9754 17.976 58.7514 17.928C58.5274 17.88 58.3514 17.792 58.2234 17.664C58.0954 17.536 58.0074 17.36 57.9594 17.136C57.9114 16.912 57.8874 16.624 57.8874 16.272V2.448C57.8874 2.096 57.9114 1.808 57.9594 1.584C58.0074 1.36 58.0954 1.184 58.2234 1.056C58.3514 0.927999 58.5274 0.839999 58.7514 0.792C58.9754 0.743999 59.2634 0.719999 59.6154 0.719999H66.5274ZM92.4473 0.719999C93.1353 0.719999 93.5913 0.839999 93.8153 1.08C94.0553 1.304 94.1753 1.76 94.1753 2.448V16.272C94.1753 16.624 94.1513 16.912 94.1033 17.136C94.0553 17.36 93.9673 17.536 93.8393 17.664C93.7113 17.792 93.5353 17.88 93.3113 17.928C93.0873 17.976 92.7993 18 92.4473 18H78.6233C78.2713 18 77.9833 17.976 77.7593 17.928C77.5353 17.88 77.3593 17.792 77.2313 17.664C77.1033 17.536 77.0153 17.36 76.9673 17.136C76.9193 16.912 76.8953 16.624 76.8953 16.272V2.448C76.8953 2.096 76.9193 1.808 76.9673 1.584C77.0153 1.36 77.1033 1.184 77.2313 1.056C77.3593 0.927999 77.5353 0.839999 77.7593 0.792C77.9833 0.743999 78.2713 0.719999 78.6233 0.719999H92.4473ZM84.6713 12.816H86.3993V5.904H84.6713V12.816ZM101.951 0.719999C102.639 0.719999 103.095 0.839999 103.319 1.08C103.559 1.304 103.679 1.76 103.679 2.448V12.816H105.407V2.448C105.407 2.096 105.431 1.808 105.479 1.584C105.527 1.36 105.615 1.184 105.743 1.056C105.871 0.927999 106.047 0.839999 106.271 0.792C106.495 0.743999 106.783 0.719999 107.135 0.719999H111.455C112.143 0.719999 112.599 0.839999 112.823 1.08C113.063 1.304 113.183 1.76 113.183 2.448V16.272C113.183 16.624 113.159 16.912 113.111 17.136C113.063 17.36 112.975 17.536 112.847 17.664C112.719 17.792 112.543 17.88 112.319 17.928C112.095 17.976 111.807 18 111.455 18H97.6311C97.2791 18 96.9911 17.976 96.7671 17.928C96.5431 17.88 96.3671 17.792 96.2391 17.664C96.1111 17.536 96.0231 17.36 95.9751 17.136C95.9271 16.912 95.9031 16.624 95.9031 16.272V2.448C95.9031 2.096 95.9271 1.808 95.9751 1.584C96.0231 1.36 96.1111 1.184 96.2391 1.056C96.3671 0.927999 96.5431 0.839999 96.7671 0.792C96.9911 0.743999 97.2791 0.719999 97.6311 0.719999H101.951ZM123.551 0.719999C124.239 0.719999 124.695 0.839999 124.919 1.08C125.159 1.304 125.279 1.76 125.279 2.448V12.816H127.007V2.448C127.007 2.096 127.031 1.808 127.079 1.584C127.127 1.36 127.215 1.184 127.343 1.056C127.471 0.927999 127.647 0.839999 127.871 0.792C128.095 0.743999 128.383 0.719999 128.735 0.719999H130.463C131.151 0.719999 131.607 0.839999 131.831 1.08C132.071 1.304 132.191 1.76 132.191 2.448V16.272C132.191 16.624 132.167 16.912 132.119 17.136C132.071 17.36 131.983 17.536 131.855 17.664C131.727 17.792 131.551 17.88 131.327 17.928C131.103 17.976 130.815 18 130.463 18H125.279C124.927 18 124.639 17.976 124.415 17.928C124.191 17.88 124.015 17.792 123.887 17.664C123.759 17.536 123.671 17.36 123.623 17.136C123.575 16.912 123.551 16.624 123.551 16.272V5.904H121.823V16.272C121.823 16.624 121.799 16.912 121.751 17.136C121.703 17.36 121.615 17.536 121.487 17.664C121.359 17.792 121.183 17.88 120.959 17.928C120.735 17.976 120.447 18 120.095 18H116.639C116.287 18 115.999 17.976 115.775 17.928C115.551 17.88 115.375 17.792 115.247 17.664C115.119 17.536 115.031 17.36 114.983 17.136C114.935 16.912 114.911 16.624 114.911 16.272V2.448C114.911 2.096 114.935 1.808 114.983 1.584C115.031 1.36 115.119 1.184 115.247 1.056C115.375 0.927999 115.551 0.839999 115.775 0.792C115.999 0.743999 116.287 0.719999 116.639 0.719999H123.551ZM149.471 0.719999C150.159 0.719999 150.615 0.839999 150.839 1.08C151.079 1.304 151.199 1.76 151.199 2.448V4.176C151.199 4.528 151.175 4.816 151.127 5.04C151.079 5.264 150.991 5.44 150.863 5.568C150.735 5.696 150.559 5.784 150.335 5.832C150.111 5.88 149.823 5.904 149.471 5.904H142.559V7.632H149.471C150.159 7.632 150.615 7.752 150.839 7.992C151.079 8.216 151.199 8.672 151.199 9.36V16.272C151.199 16.624 151.175 16.912 151.127 17.136C151.079 17.36 150.991 17.536 150.863 17.664C150.735 17.792 150.559 17.88 150.335 17.928C150.111 17.976 149.823 18 149.471 18H135.647C135.295 18 135.007 17.976 134.783 17.928C134.559 17.88 134.383 17.792 134.255 17.664C134.127 17.536 134.039 17.36 133.991 17.136C133.943 16.912 133.919 16.624 133.919 16.272V14.544C133.919 14.192 133.943 13.904 133.991 13.68C134.039 13.456 134.127 13.28 134.255 13.152C134.383 13.024 134.559 12.936 134.783 12.888C135.007 12.84 135.295 12.816 135.647 12.816H142.559V11.088H135.647C135.295 11.088 135.007 11.064 134.783 11.016C134.559 10.968 134.383 10.88 134.255 10.752C134.127 10.624 134.039 10.448 133.991 10.224C133.943 10 133.919 9.712 133.919 9.36V2.448C133.919 2.096 133.943 1.808 133.991 1.584C134.039 1.36 134.127 1.184 134.255 1.056C134.383 0.927999 134.559 0.839999 134.783 0.792C135.007 0.743999 135.295 0.719999 135.647 0.719999H149.471Z" fill="#4BFB9C"/>
</svg>
